<svg width="136" height="28" viewBox="0 0 136 28" fill="none" xmlns="http://www.w3.org/2000/svg">
<path d="M22.8451 10.7197L17.6317 15.7574L16.343 14.4687C15.6986 13.8243 14.7028 13.8243 14.0585 14.4687C13.4141 15.113 13.4141 16.1089 14.0585 16.7532L16.343 19.0377C16.6944 19.3892 17.1631 19.5064 17.6317 19.5064C18.1003 19.5064 18.6275 19.3306 19.0961 19.0377L25.1296 13.18C25.7739 12.5356 25.7739 11.5398 25.1296 10.8955C24.4267 10.2511 23.4894 10.0754 22.8451 10.7197Z" fill="white"/>
<path d="M34.3849 8.78661C32.7448 6.97071 30.4603 5.68201 28.0586 5.21339C26.7699 3.1046 24.6611 1.46443 22.3766 0.644351C21.2636 0.175732 20.092 0 18.8033 0C12.9456 0 8.0251 4.56904 7.73222 10.251C3.28033 10.8954 0 14.6444 0 19.0377C0 23.9582 4.10042 28 8.96234 28H25.8912C32.2762 28 37.4895 22.7866 37.4895 16.4602C37.4895 13.6485 36.3766 10.8954 34.3849 8.78661V8.78661ZM25.7741 24.8954H8.78661C5.50628 24.8954 3.1046 22.4351 3.1046 19.2134C3.1046 15.9916 5.74059 13.5314 8.78661 13.5314H10.7197V11.2469C10.7197 6.85356 14.2929 3.28033 18.6862 3.28033C19.682 3.28033 20.5021 3.45607 21.3222 3.74895C23.1381 4.3933 24.7197 5.68201 25.7155 7.49791L26.1841 8.31799L27.0042 8.49372C28.9372 8.66946 30.9289 9.60669 32.2176 11.1297C33.682 12.7699 34.5021 14.7029 34.5021 16.8117C34.2092 21.1464 30.4603 24.8954 25.7741 24.8954V24.8954Z" fill="white"/>
<path d="M49.5312 11.2755H51.6477C51.5838 8.94596 49.5241 7.25562 46.5696 7.25562C43.6505 7.25562 41.4133 8.92465 41.4133 11.4318C41.4133 13.4559 42.8622 14.642 45.1988 15.2741L46.9176 15.7428C48.473 16.1548 49.6733 16.6661 49.6733 17.9587C49.6733 19.3792 48.3167 20.3167 46.4488 20.3167C44.7585 20.3167 43.3523 19.5639 43.2244 17.98H41.0227C41.1648 20.615 43.2031 22.2414 46.463 22.2414C49.8792 22.2414 51.8466 20.4445 51.8466 17.98C51.8466 15.3593 49.5099 14.3437 47.6633 13.8891L46.2429 13.5198C45.1065 13.2286 43.5937 12.696 43.6008 11.3039C43.6008 10.0681 44.7301 9.15192 46.5199 9.15192C48.1889 9.15192 49.375 9.93317 49.5312 11.2755Z" fill="white"/>
<path d="M57.4733 22.2414C59.2773 22.2414 60.2929 21.3252 60.6978 20.5085H60.783V21.9999H62.8569V14.7556C62.8569 11.5809 60.3569 10.9488 58.6239 10.9488C56.6495 10.9488 54.8313 11.7443 54.1211 13.7329L56.1168 14.1874C56.4293 13.4133 57.2248 12.6675 58.6523 12.6675C60.0231 12.6675 60.7262 13.3849 60.7262 14.6207V14.6704C60.7262 15.4445 59.9307 15.4303 57.9705 15.6576C55.9037 15.8991 53.7873 16.4389 53.7873 18.9175C53.7873 21.0624 55.3995 22.2414 57.4733 22.2414ZM57.935 20.5369C56.7347 20.5369 55.8682 19.9971 55.8682 18.946C55.8682 17.8096 56.8768 17.4048 58.1054 17.2414C58.7944 17.1491 60.4279 16.9644 60.7333 16.659V18.0653C60.7333 19.3579 59.7035 20.5369 57.935 20.5369Z" fill="white"/>
<path d="M68.8601 22.2414C70.664 22.2414 71.6797 21.3252 72.0845 20.5085H72.1697V21.9999H74.2436V14.7556C74.2436 11.5809 71.7436 10.9488 70.0106 10.9488C68.0362 10.9488 66.218 11.7443 65.5078 13.7329L67.5035 14.1874C67.816 13.4133 68.6115 12.6675 70.039 12.6675C71.4098 12.6675 72.1129 13.3849 72.1129 14.6207V14.6704C72.1129 15.4445 71.3174 15.4303 69.3572 15.6576C67.2905 15.8991 65.174 16.4389 65.174 18.9175C65.174 21.0624 66.7862 22.2414 68.8601 22.2414ZM69.3217 20.5369C68.1214 20.5369 67.2549 19.9971 67.2549 18.946C67.2549 17.8096 68.2635 17.4048 69.4922 17.2414C70.1811 17.1491 71.8146 16.9644 72.12 16.659V18.0653C72.12 19.3579 71.0902 20.5369 69.3217 20.5369Z" fill="white"/>
<path d="M85.1758 11.2755H87.2922C87.2283 8.94596 85.1687 7.25562 82.2141 7.25562C79.2951 7.25562 77.0579 8.92465 77.0579 11.4318C77.0579 13.4559 78.5067 14.642 80.8434 15.2741L82.5621 15.7428C84.1175 16.1548 85.3178 16.6661 85.3178 17.9587C85.3178 19.3792 83.9613 20.3167 82.0934 20.3167C80.403 20.3167 78.9968 19.5639 78.8689 17.98H76.6672C76.8093 20.615 78.8476 22.2414 82.1076 22.2414C85.5238 22.2414 87.4911 20.4445 87.4911 17.98C87.4911 15.3593 85.1545 14.3437 83.3079 13.8891L81.8874 13.5198C80.751 13.2286 79.2383 12.696 79.2454 11.3039C79.2454 10.0681 80.3746 9.15192 82.1644 9.15192C83.8334 9.15192 85.0195 9.93317 85.1758 11.2755Z" fill="white"/>
<path d="M90.1136 21.9999H92.1875V20.3025H92.365C92.7486 20.9985 93.5298 22.213 95.5184 22.213C98.1605 22.213 100.078 20.0965 100.078 16.5667C100.078 13.0298 98.1321 10.9488 95.4971 10.9488C93.473 10.9488 92.7415 12.1846 92.365 12.8593H92.2372V7.45448H90.1136V21.9999ZM92.1946 16.5454C92.1946 14.2656 93.1889 12.7528 95.0426 12.7528C96.9673 12.7528 97.9332 14.3792 97.9332 16.5454C97.9332 18.7329 96.9389 20.4019 95.0426 20.4019C93.2173 20.4019 92.1946 18.8394 92.1946 16.5454Z" fill="white"/>
<path d="M107.058 22.2201C110.133 22.2201 112.143 19.9687 112.143 16.5951C112.143 13.2002 110.133 10.9488 107.058 10.9488C103.983 10.9488 101.973 13.2002 101.973 16.5951C101.973 19.9687 103.983 22.2201 107.058 22.2201ZM107.065 20.4374C105.055 20.4374 104.118 18.6832 104.118 16.588C104.118 14.4999 105.055 12.7244 107.065 12.7244C109.061 12.7244 109.998 14.4999 109.998 16.588C109.998 18.6832 109.061 20.4374 107.065 20.4374Z" fill="white"/>
<path d="M116.637 7.45448H114.513V21.9999H116.637V7.45448Z" fill="white"/>
<path d="M123.578 22.213C125.566 22.213 126.348 20.9985 126.731 20.3025H126.909V21.9999H128.983V7.45448H126.859V12.8593H126.731C126.348 12.1846 125.623 10.9488 123.592 10.9488C120.957 10.9488 119.018 13.0298 119.018 16.5667C119.018 20.0965 120.929 22.213 123.578 22.213ZM124.046 20.4019C122.15 20.4019 121.163 18.7329 121.163 16.5454C121.163 14.3792 122.129 12.7528 124.046 12.7528C125.9 12.7528 126.895 14.2656 126.895 16.5454C126.895 18.8394 125.879 20.4019 124.046 20.4019Z" fill="white"/>
</svg>
